<?xml version="1.0" encoding="UTF-8" standalone="no"?>
<svg width="161px" height="45px" viewBox="0 0 161 45" version="1.1" xmlns="http://www.w3.org/2000/svg" xmlns:xlink="http://www.w3.org/1999/xlink">
    <!-- Generator: sketchtool 50.2 (55047) - http://www.bohemiancoding.com/sketch -->
    <title>CFBA84BC-19C6-4FD1-B63D-1BA1427128B5</title>
    <desc>Created with sketchtool.</desc>
    <defs></defs>
    <g id="Landing" stroke="none" stroke-width="1" fill="none" fill-rule="evenodd">
        <g id="Desktop-" transform="translate(-48.000000, -85.000000)" fill-rule="nonzero">
            <g id="HEADER" transform="translate(-22.000000, 0.000000)">
                <g id="check_logo" transform="translate(70.000000, 85.000000)">
                    <path d="M65.5776252,12.37126 C62.8404891,12.2327945 60.1905747,13.3828898 58.3752216,15.4971911 C56.6197383,17.5867775 55.7392623,20.4479901 55.7337935,24.0808289 C55.7337935,27.809417 56.5841911,30.6903427 58.2849865,32.723606 C59.9857819,34.7568693 62.4029895,35.7735009 65.5366092,35.7735009 C67.7745456,35.7223053 69.9956363,35.3614202 72.1401797,34.7005462 L72.1401797,37.5983688 C69.8581749,38.4018807 67.4552539,38.7795329 65.0444176,38.7135658 C60.9701651,38.7135658 57.8256077,37.4406642 55.6107456,34.8948608 C53.3958834,32.3490575 52.3021243,28.7302994 52.3294683,24.0385866 C52.2737127,21.3752953 52.8184572,18.7349748 53.9208878,16.3251404 C54.9258776,14.1815553 56.5354903,12.4001485 58.5392855,11.2138207 C60.7118323,9.98033772 63.1631425,9.3623057 65.6432507,9.42274662 C68.2689058,9.36430783 70.8727761,9.92492686 73.255814,11.0617483 L71.8940839,13.9088802 C69.9262274,12.9177801 67.7680842,12.3924217 65.5776252,12.37126 Z" id="Shape" fill="#003A63"></path>
                    <path d="M94.1340886,37.6744186 L94.1340886,23.8293292 C94.2428026,22.4209911 93.8171866,21.0234389 92.9424868,19.9165866 C91.9426106,18.9765296 90.5909858,18.5082747 89.2260225,18.6290602 C87.0039214,18.6290602 85.3651217,19.242168 84.3096237,20.4683836 C83.2541256,21.6945993 82.7374871,23.6983471 82.7597081,26.4796271 L82.7597081,37.6744186 L79.5348837,37.6744186 L79.5348837,7.3255814 L82.7597081,7.3255814 L82.7597081,16.5221987 C82.7704657,17.4413943 82.7203581,18.3602918 82.6097162,19.2728234 L82.8013725,19.2728234 C83.4592682,18.2224158 84.4014534,17.3814913 85.5178912,16.8482606 C86.7676521,16.2364257 88.1439409,15.929886 89.5343391,15.9536806 C92.1508632,15.9536806 94.100757,16.5807227 95.3673547,17.8180857 C96.6339524,19.0554488 97.3255814,21.0452623 97.3255814,23.7540842 L97.3255814,37.6744186 L94.1340886,37.6744186 Z" id="Shape" fill="#003A63"></path>
                    <path d="M111.603396,37.6596027 C108.84628,37.8127349 106.155381,36.7731963 104.207203,34.8023318 C102.410153,32.8918985 101.511628,30.2441049 101.511628,26.8589511 C101.511628,23.4737973 102.343596,20.758971 104.007531,18.7144722 C105.664373,16.7119802 108.152169,15.6001171 110.73815,15.7063776 C113.106244,15.5952012 115.400143,16.5537222 116.994547,18.3206548 C118.591521,20.2545345 119.410816,22.7210065 119.290778,25.233407 L119.290778,27.2611476 L104.847818,27.2611476 C104.914376,29.7469454 105.538352,31.6350345 106.719746,32.9254149 C108.029026,34.264066 109.849291,34.9668175 111.711552,34.8526064 C114.02272,34.8452303 116.307816,34.3604217 118.425532,33.4281605 L118.425532,36.2854314 C117.399795,36.7478454 116.329128,37.1016671 115.230776,37.3411972 C114.035277,37.5693303 112.820056,37.6760005 111.603396,37.6596027 Z M110.771429,18.3876875 C109.246661,18.3185911 107.769587,18.9320437 106.736385,20.0635062 C105.655515,21.3572145 105.029575,22.9744832 104.955974,24.6636286 L115.954588,24.6636286 C116.066579,23.0016308 115.588938,21.3535811 114.6068,20.0132317 C113.641803,18.8902289 112.20948,18.2883898 110.73815,18.3876875 L110.771429,18.3876875 Z" id="Shape" fill="#003A63"></path>
                    <path d="M134.415751,37.6658578 C131.271067,37.6658578 128.836657,36.7211701 127.112522,34.8317945 C125.388388,32.9424189 124.529184,30.2704617 124.534912,26.815923 C124.534912,23.2719463 125.4113,20.5329107 127.164075,18.5988162 C128.916849,16.6647217 131.411403,15.6976744 134.647736,15.6976744 C135.699119,15.6990537 136.747419,15.8086626 137.775236,16.0246817 C138.623869,16.181701 139.449275,16.4408121 140.232558,16.7960836 L139.218698,19.5211445 C138.449824,19.222013 137.656571,18.9864109 136.847297,18.8168211 C136.097741,18.6454226 135.331566,18.5526633 134.561816,18.5401226 C130.156966,18.5401226 127.951678,21.284748 127.94595,26.773999 C127.94595,29.3788777 128.484384,31.3772557 129.561252,32.769133 C130.694789,34.2062768 132.483123,35.0035451 134.338423,34.8988729 C136.253097,34.8798551 138.145111,34.4923433 139.906061,33.7585397 L139.906061,36.5758335 C138.19189,37.3632255 136.308915,37.7370638 134.415751,37.6658578 Z" id="Shape" fill="#003A63"></path>
                    <path d="M146.475294,26.7137229 C147.2576,25.6284232 148.093859,24.5847714 148.980781,23.586873 L155.752146,16.2630213 L159.526753,16.2630213 L151.027748,25.3843936 L160.116279,37.6744186 L156.267982,37.6744186 L148.898903,27.5581395 L146.508046,29.665001 L146.508046,37.6744186 L143.372093,37.6744186 L143.372093,7.3255814 L146.508046,7.3255814 L146.508046,23.39458 C146.508046,24.1135883 146.458919,25.2171824 146.360664,26.7388045 L146.475294,26.7137229 Z" id="Shape" fill="#003A63"></path>
                    <path d="M39.384292,13.5216175 C44.0912176,22.3347871 41.2235223,33.2860158 32.8012865,38.6609693 C24.3790507,44.0359227 13.2390736,42.0241949 7.22864919,34.0429001 C1.21822474,26.0616054 2.36179968,14.799024 9.85380963,8.1888156 C17.3458196,1.57860719 28.6627863,1.84723932 35.8327397,8.80548041 L38.41115,6.59297167 C29.9852673,-1.83634516 16.4480305,-2.23226644 7.54393842,5.69020355 C-1.36015361,13.6126735 -2.54143572,27.1044864 4.8504135,36.4538409 C12.2422627,45.8031954 25.6423171,47.7659229 35.4048257,40.9291949 C45.1673343,34.0924669 47.9047667,20.8285858 41.6466391,10.6852811 L39.384292,13.5216175 Z" id="Shape" fill="#003A63"></path>
                    <polygon id="Shape" fill="#8DBA38" points="20.4951486 23.8500657 12.5581395 19.1523342 22.2401047 32.4418605 47.0930233 2.09302326"></polygon>
                </g>
            </g>
        </g>
    </g>
</svg>